# Made in Blockbench 4.8.3
mtllib alchemical_engine.mtl

o cube
v 0.2771908853681943 0.605703558364052 0.5625
v -0.05543817707363885 0.7788592883271896 0.5625
v 0.05999897623511963 1.000611996621745 0.5625
v 0.3926280386769528 0.8274562666586074 0.5625
v 0.2771908853681943 0.605703558364052 0.8125
v 0.3926280386769528 0.8274562666586074 0.8125
v -0.05543817707363885 0.7788592883271896 0.8125
v 0.05999897623511963 1.000611996621745 0.8125
vt 0.5 0.5
vt 0.5 0.6875
vt 0.625 0.6875
vt 0.625 0.5
vt 0.5 0.6875
vt 0.625 0.6875
vt 0.625 0.8125
vt 0.5 0.8125
vt 0.5 0.6875
vt 0.5 0.5
vt 0.625 0.5
vt 0.625 0.6875
vt 0.5 0.6875
vt 0.625 0.6875
vt 0.625 0.8125
vt 0.5 0.8125
vt 0.5 0.6875
vt 0.5 0.5
vt 0.625 0.5
vt 0.625 0.6875
vt 0.5 0.6875
vt 0.5 0.5
vt 0.625 0.5
vt 0.625 0.6875
vn 0 0 -1
vn 0.8870108331782217 -0.46174861323503397 0
vn 0 0 1
vn -0.8870108331782217 0.46174861323503397 0
vn 0.46174861323503386 0.8870108331782219 0
vn -0.46174861323503386 -0.8870108331782219 0
usemtl m_ef5f6b1f-124c-cb56-6b1b-a7ae4fe44bc1
f 1/1/1 2/2/1 3/3/1 4/4/1
f 5/5/2 1/6/2 4/7/2 6/8/2
f 7/9/3 5/10/3 6/11/3 8/12/3
f 2/13/4 7/14/4 8/15/4 3/16/4
f 8/17/5 6/18/5 4/19/5 3/20/5
f 2/21/6 1/22/6 5/23/6 7/24/6
o cube
v 1.055438177073639 0.7788592883271896 0.1875
v 0.7228091146318056 0.605703558364052 0.1875
v 0.6073719613230473 0.8274562666586074 0.1875
v 0.9400010237648804 1.000611996621745 0.1875
v 1.055438177073639 0.7788592883271896 0.4375
v 0.9400010237648804 1.000611996621745 0.4375
v 0.7228091146318056 0.605703558364052 0.4375
v 0.6073719613230473 0.8274562666586074 0.4375
vt 0.5 0.6875
vt 0.5 0.5
vt 0.625 0.5
vt 0.625 0.6875
vt 0.5 0.6875
vt 0.625 0.6875
vt 0.625 0.8125
vt 0.5 0.8125
vt 0.5 0.5
vt 0.5 0.6875
vt 0.625 0.6875
vt 0.625 0.5
vt 0.5 0.6875
vt 0.625 0.6875
vt 0.625 0.8125
vt 0.5 0.8125
vt 0.5 0.5
vt 0.5 0.6875
vt 0.625 0.6875
vt 0.625 0.5
vt 0.5 0.5
vt 0.5 0.6875
vt 0.625 0.6875
vt 0.625 0.5
vn 0 0 -1
vn 0.8870108331782216 0.46174861323503436 0
vn 0 0 1
vn -0.8870108331782219 -0.46174861323503363 0
vn -0.46174861323503397 0.8870108331782219 0
vn 0.4617486132350337 -0.887010833178222 0
usemtl m_ef5f6b1f-124c-cb56-6b1b-a7ae4fe44bc1
f 9/25/7 10/26/7 11/27/7 12/28/7
f 13/29/8 9/30/8 12/31/8 14/32/8
f 15/33/9 13/34/9 14/35/9 16/36/9
f 10/37/10 15/38/10 16/39/10 11/40/10
f 16/41/11 14/42/11 12/43/11 11/44/11
f 10/45/12 9/46/12 13/47/12 15/48/12
o cube
v 0.875 1 0.125
v 0.875 1 0.875
v 1 0.75 1
v 1 0.75 0
v 0 0.75 1
v 0.125 1 0.875
v 0.125 1 0.125
v 0 0.75 0
v 1 0 0
v 1 0 1
v 0 0 1
v 0 0 0
vt 0.43333333333333335 0.5
vt 0.06666666666666667 0.5
vt 0 0.375
vt 0.5 0.375
vt 0.5 0.37674375000000004
vt 0.4375 0.5
vt 0.0625 0.5
vt 0 0.37674375000000004
vt 0.40625 0.09375
vt 0.40625 0.34375
vt 0.09375 0.34375
vt 0.09375 0.09375
vt 0.5 0.37674375000000004
vt 0.4375 0.5
vt 0.0625 0.5
vt 0 0.37674375000000004
vt 0.43333333333333335 0.5
vt 0.06666666666666667 0.5
vt 0 0.375
vt 0.5 0.375
vt 0.625 0.5
vt 1 0.5
vt 1 0.875
vt 0.625 0.875
vt 0.5 0
vt 1 0
vt 1 0.375
vt 0.5 0.375
vt 0.5 0
vt 1 0
vt 1 0.375
vt 0.5 0.375
vt 0.5 0
vt 1 0
vt 1 0.375
vt 0.5 0.375
vt 0 0
vt 0.5 0
vt 0.5 0.375
vt 0 0.375
vn 0.8944271909999161 0.44721359549995804 0
vn -0.8944271909999161 0.44721359549995804 0
vn 0 -1 0
vn 0 0.44721359549995804 0.8944271909999161
vn 0 0.44721359549995804 -0.8944271909999161
vn 0 1 0
vn 1 0 0
vn 0 0 1
vn -1 0 0
vn 0 0 -1
usemtl m_ef5f6b1f-124c-cb56-6b1b-a7ae4fe44bc1
f 17/49/13 18/50/13 19/51/13 20/52/13
f 21/53/14 22/54/14 23/55/14 24/56/14
f 25/57/15 26/58/15 27/59/15 28/60/15
f 19/61/16 18/62/16 22/63/16 21/64/16
f 23/65/17 17/66/17 20/67/17 24/68/17
f 22/69/18 18/70/18 17/71/18 23/72/18
f 26/73/19 25/74/19 20/75/19 19/76/19
f 27/77/20 26/78/20 19/79/20 21/80/20
f 28/81/21 27/82/21 21/83/21 24/84/21
f 25/85/22 28/86/22 24/87/22 20/88/22
o cube
v 0.2771908853681943 0.605703558364052 0.1875
v -0.05543817707363885 0.7788592883271896 0.1875
v 0.05999897623511963 1.000611996621745 0.1875
v 0.3926280386769528 0.8274562666586074 0.1875
v 0.2771908853681943 0.605703558364052 0.4375
v 0.3926280386769528 0.8274562666586074 0.4375
v -0.05543817707363885 0.7788592883271896 0.4375
v 0.05999897623511963 1.000611996621745 0.4375
vt 0.5 0.5
vt 0.5 0.6875
vt 0.625 0.6875
vt 0.625 0.5
vt 0.5 0.6875
vt 0.625 0.6875
vt 0.625 0.8125
vt 0.5 0.8125
vt 0.5 0.6875
vt 0.5 0.5
vt 0.625 0.5
vt 0.625 0.6875
vt 0.5 0.6875
vt 0.625 0.6875
vt 0.625 0.8125
vt 0.5 0.8125
vt 0.5 0.6875
vt 0.5 0.5
vt 0.625 0.5
vt 0.625 0.6875
vt 0.5 0.6875
vt 0.5 0.5
vt 0.625 0.5
vt 0.625 0.6875
vn 0 0 -1
vn 0.8870108331782217 -0.46174861323503397 0
vn 0 0 1
vn -0.8870108331782217 0.46174861323503397 0
vn 0.46174861323503386 0.8870108331782219 0
vn -0.46174861323503386 -0.8870108331782219 0
usemtl m_ef5f6b1f-124c-cb56-6b1b-a7ae4fe44bc1
f 29/89/23 30/90/23 31/91/23 32/92/23
f 33/93/24 29/94/24 32/95/24 34/96/24
f 35/97/25 33/98/25 34/99/25 36/100/25
f 30/101/26 35/102/26 36/103/26 31/104/26
f 36/105/27 34/106/27 32/107/27 31/108/27
f 30/109/28 29/110/28 33/111/28 35/112/28
o cube
v 1.055438177073639 0.7788592883271896 0.5625
v 0.7228091146318056 0.605703558364052 0.5625
v 0.6073719613230473 0.8274562666586074 0.5625
v 0.9400010237648804 1.000611996621745 0.5625
v 1.055438177073639 0.7788592883271896 0.8125
v 0.9400010237648804 1.000611996621745 0.8125
v 0.7228091146318056 0.605703558364052 0.8125
v 0.6073719613230473 0.8274562666586074 0.8125
vt 0.5 0.6875
vt 0.5 0.5
vt 0.625 0.5
vt 0.625 0.6875
vt 0.5 0.6875
vt 0.625 0.6875
vt 0.625 0.8125
vt 0.5 0.8125
vt 0.5 0.5
vt 0.5 0.6875
vt 0.625 0.6875
vt 0.625 0.5
vt 0.5 0.6875
vt 0.625 0.6875
vt 0.625 0.8125
vt 0.5 0.8125
vt 0.5 0.5
vt 0.5 0.6875
vt 0.625 0.6875
vt 0.625 0.5
vt 0.5 0.5
vt 0.5 0.6875
vt 0.625 0.6875
vt 0.625 0.5
vn 0 0 -1
vn 0.8870108331782216 0.46174861323503436 0
vn 0 0 1
vn -0.8870108331782219 -0.46174861323503363 0
vn -0.46174861323503397 0.8870108331782219 0
vn 0.4617486132350337 -0.887010833178222 0
usemtl m_ef5f6b1f-124c-cb56-6b1b-a7ae4fe44bc1
f 37/113/29 38/114/29 39/115/29 40/116/29
f 41/117/30 37/118/30 40/119/30 42/120/30
f 43/121/31 41/122/31 42/123/31 44/124/31
f 38/125/32 43/126/32 44/127/32 39/128/32
f 44/129/33 42/130/33 40/131/33 39/132/33
f 38/133/34 37/134/34 41/135/34 43/136/34