# Blender 3.6.4
# www.blender.org
mtllib alchemical_engine.mtl
o cube
v 0.277191 0.605704 0.562500
v -0.055438 0.778859 0.562500
v 0.059999 1.000612 0.562500
v 0.392628 0.827456 0.562500
v 0.277191 0.605704 0.812500
v 0.392628 0.827456 0.812500
v -0.055438 0.778859 0.812500
v 0.059999 1.000612 0.812500
vn -0.0000 -0.0000 -1.0000
vn 0.8870 -0.4617 -0.0000
vn -0.0000 -0.0000 1.0000
vn -0.8870 0.4617 -0.0000
vn 0.4617 0.8870 -0.0000
vn -0.4617 -0.8870 -0.0000
vt 0.500000 0.500000
vt 0.500000 0.687500
vt 0.625000 0.687500
vt 0.625000 0.500000
vt 0.625000 0.812500
vt 0.500000 0.812500
s 0
usemtl m_ef5f6b1f-124c-cb56-6b1b-a7ae4fe44bc1
f 1/1/1 2/2/1 3/3/1 4/4/1
f 5/2/2 1/3/2 4/5/2 6/6/2
f 7/2/3 5/1/3 6/4/3 8/3/3
f 2/2/4 7/3/4 8/5/4 3/6/4
f 8/2/5 6/1/5 4/4/5 3/3/5
f 2/2/6 1/1/6 5/4/6 7/3/6
o cube.001
v 1.055438 0.778859 0.187500
v 0.722809 0.605704 0.187500
v 0.607372 0.827456 0.187500
v 0.940001 1.000612 0.187500
v 1.055438 0.778859 0.437500
v 0.940001 1.000612 0.437500
v 0.722809 0.605704 0.437500
v 0.607372 0.827456 0.437500
vn -0.0000 -0.0000 -1.0000
vn 0.8870 0.4617 -0.0000
vn -0.0000 -0.0000 1.0000
vn -0.8870 -0.4617 -0.0000
vn -0.4617 0.8870 -0.0000
vn 0.4617 -0.8870 -0.0000
vt 0.500000 0.687500
vt 0.500000 0.500000
vt 0.625000 0.500000
vt 0.625000 0.687500
vt 0.625000 0.812500
vt 0.500000 0.812500
s 0
usemtl m_ef5f6b1f-124c-cb56-6b1b-a7ae4fe44bc1
f 9/7/7 10/8/7 11/9/7 12/10/7
f 13/7/8 9/10/8 12/11/8 14/12/8
f 15/8/9 13/7/9 14/10/9 16/9/9
f 10/7/10 15/10/10 16/11/10 11/12/10
f 16/8/11 14/7/11 12/10/11 11/9/11
f 10/8/12 9/7/12 13/10/12 15/9/12
o cube.002
v 0.875000 1.000000 0.125000
v 0.875000 1.000000 0.875000
v 1.000000 0.750000 1.000000
v 1.000000 0.750000 -0.000000
v 0.000000 0.750000 1.000000
v 0.125000 1.000000 0.875000
v 0.125000 1.000000 0.125000
v 0.000000 0.750000 -0.000000
v 1.000000 0.000000 0.000000
v 1.000000 0.000000 1.000000
v 0.000000 0.000000 1.000000
v 0.000000 0.000000 0.000000
vn 0.8944 0.4472 -0.0000
vn -0.8944 0.4472 -0.0000
vn -0.0000 -1.0000 -0.0000
vn -0.0000 0.4472 0.8944
vn -0.0000 0.4472 -0.8944
vn -0.0000 1.0000 -0.0000
vn 1.0000 -0.0000 -0.0000
vn -0.0000 -0.0000 1.0000
vn -1.0000 -0.0000 -0.0000
vn -0.0000 -0.0000 -1.0000
vt 0.433333 0.500000
vt 0.066667 0.500000
vt 0.000000 0.375000
vt 0.500000 0.375000
vt 0.500000 0.376744
vt 0.437500 0.500000
vt 0.062500 0.500000
vt 0.000000 0.376744
vt 0.406250 0.093750
vt 0.406250 0.343750
vt 0.093750 0.343750
vt 0.093750 0.093750
vt 0.625000 0.500000
vt 1.000000 0.500000
vt 1.000000 0.875000
vt 0.625000 0.875000
vt 0.500000 0.000000
vt 1.000000 0.000000
vt 1.000000 0.375000
vt 0.000000 0.000000
s 0
usemtl m_ef5f6b1f-124c-cb56-6b1b-a7ae4fe44bc1
f 17/13/13 18/14/13 19/15/13 20/16/13
f 21/17/14 22/18/14 23/19/14 24/20/14
f 25/21/15 26/22/15 27/23/15 28/24/15
f 19/17/16 18/18/16 22/19/16 21/20/16
f 23/13/17 17/14/17 20/15/17 24/16/17
f 22/25/18 18/26/18 17/27/18 23/28/18
f 26/29/19 25/30/19 20/31/19 19/16/19
f 27/29/20 26/30/20 19/31/20 21/16/20
f 28/29/21 27/30/21 21/31/21 24/16/21
f 25/32/22 28/29/22 24/16/22 20/15/22
o cube.003
v 0.277191 0.605704 0.187500
v -0.055438 0.778859 0.187500
v 0.059999 1.000612 0.187500
v 0.392628 0.827456 0.187500
v 0.277191 0.605704 0.437500
v 0.392628 0.827456 0.437500
v -0.055438 0.778859 0.437500
v 0.059999 1.000612 0.437500
vn -0.0000 -0.0000 -1.0000
vn 0.8870 -0.4617 -0.0000
vn -0.0000 -0.0000 1.0000
vn -0.8870 0.4617 -0.0000
vn 0.4617 0.8870 -0.0000
vn -0.4617 -0.8870 -0.0000
vt 0.500000 0.500000
vt 0.500000 0.687500
vt 0.625000 0.687500
vt 0.625000 0.500000
vt 0.625000 0.812500
vt 0.500000 0.812500
s 0
usemtl m_ef5f6b1f-124c-cb56-6b1b-a7ae4fe44bc1
f 29/33/23 30/34/23 31/35/23 32/36/23
f 33/34/24 29/35/24 32/37/24 34/38/24
f 35/34/25 33/33/25 34/36/25 36/35/25
f 30/34/26 35/35/26 36/37/26 31/38/26
f 36/34/27 34/33/27 32/36/27 31/35/27
f 30/34/28 29/33/28 33/36/28 35/35/28
o cube.004
v 1.055438 0.778859 0.562500
v 0.722809 0.605704 0.562500
v 0.607372 0.827456 0.562500
v 0.940001 1.000612 0.562500
v 1.055438 0.778859 0.812500
v 0.940001 1.000612 0.812500
v 0.722809 0.605704 0.812500
v 0.607372 0.827456 0.812500
vn -0.0000 -0.0000 -1.0000
vn 0.8870 0.4617 -0.0000
vn -0.0000 -0.0000 1.0000
vn -0.8870 -0.4617 -0.0000
vn -0.4617 0.8870 -0.0000
vn 0.4617 -0.8870 -0.0000
vt 0.500000 0.687500
vt 0.500000 0.500000
vt 0.625000 0.500000
vt 0.625000 0.687500
vt 0.625000 0.812500
vt 0.500000 0.812500
s 0
usemtl m_ef5f6b1f-124c-cb56-6b1b-a7ae4fe44bc1
f 37/39/29 38/40/29 39/41/29 40/42/29
f 41/39/30 37/42/30 40/43/30 42/44/30
f 43/40/31 41/39/31 42/42/31 44/41/31
f 38/39/32 43/42/32 44/43/32 39/44/32
f 44/40/33 42/39/33 40/42/33 39/41/33
f 38/40/34 37/39/34 41/42/34 43/41/34
