# Made in Blockbench 4.8.3
mtllib alchemical_engine.mtl

o cube
v 0.875 1 0.125
v 0.875 1 0.875
v 1 0.75 0
v 1 0.75 1
v 0.125 1 0.125
v 0.125 1 0.875
v 0 0.75 0
v 0 0.75 1
v 1 0 0
v 0 0 0
v 1 0 1
v 0 0 1
vt 0 0.75
vt 0.125 1
vt 0.875 1
vt 1 0.75
vt 0.125 1
vt 0.875 1
vt 1 0.75
vt 0 0.75
vt 0 1
vt 1 1
vt 1 0
vt 0 0
vt 0.125 1
vt 0.875 1
vt 1 0.75
vt 0 0.75
vt 0 0.75
vt 0.12916666666666665 1
vt 0.8708333333333333 1
vt 1 0.75
vt 1 0.75
vt 1 0
vt 0.25 0
vt 0.25 0.75
vt 1 0.75
vt 1 0
vt 0 0
vt 0 0.75
vt 1 0.75
vt 1 0
vt 0 0
vt 0 0.75
vt 1 0.75
vt 1 0
vt 0 0
vt 0 0.75
vt 1 0.75
vt 1 0
vt 0 0
vt 0 0.75
vn 0.8944271909999161 0.44721359549995804 0
vn -0.8944271909999161 0.44721359549995804 0
vn 0 -1 0
vn 0 0.44721359549995804 -0.8944271909999161
vn 0 0.44721359549995804 0.8944271909999161
vn 0 1 0
vn 1 0 0
vn 0 0 -1
vn -1 0 0
vn 0 0 1
usemtl m_9a18fb02-6e1e-67ee-52ae-926e83a94626
f 3/1/1 1/2/1 2/3/1 4/4/1
f 6/5/2 5/6/2 7/7/2 8/8/2
usemtl m_855226ba-270c-2e9f-4bdb-894306f5b53e
f 10/9/3 9/10/3 11/11/3 12/12/3
usemtl m_3ef4d786-6e90-42e5-71e8-15f410650616
f 5/13/4 1/14/4 3/15/4 7/16/4
usemtl m_e2503223-f719-3222-73b9-ebeca3895fbf
f 4/17/5 2/18/5 6/19/5 8/20/5
usemtl m_6f3a3f64-b3b0-b508-40ca-0bdc3c78576f
f 2/21/6 1/22/6 5/23/6 6/24/6
usemtl m_9a18fb02-6e1e-67ee-52ae-926e83a94626
f 4/25/7 11/26/7 9/27/7 3/28/7
usemtl m_3ef4d786-6e90-42e5-71e8-15f410650616
f 3/29/8 9/30/8 10/31/8 7/32/8
usemtl m_9a18fb02-6e1e-67ee-52ae-926e83a94626
f 7/33/9 10/34/9 12/35/9 8/36/9
usemtl m_e2503223-f719-3222-73b9-ebeca3895fbf
f 8/37/10 12/38/10 11/39/10 4/40/10
o cube1
v 0.39262803867695273 0.8274562666586074 0.8125
v 0.39262803867695273 0.8274562666586074 0.5625
v 0.27719088536819436 0.605703558364052 0.8125
v 0.27719088536819436 0.605703558364052 0.5625
v 0.05999897623511963 1.000611996621745 0.5625
v 0.05999897623511963 1.000611996621745 0.8125
v -0.05543817707363885 0.7788592883271896 0.5625
v -0.05543817707363885 0.7788592883271896 0.8125
vt 0.25 0
vt 0.25 0.375
vt 0 0.375
vt 0 0
vt 0.25 1
vt 0 1
vt 0 0.75
vt 0.25 0.75
vt 0.25 0.375
vt 0.25 0
vt 0 0
vt 0 0.375
vt 0.25 0.625
vt 0 0.625
vt 0 0.375
vt 0.25 0.375
vt 0 0.375
vt 0 0
vt 0.25 0
vt 0.25 0.375
vt 0 0.375
vt 0 0
vt 0.25 0
vt 0.25 0.375
vn 0 0 -1
vn 0.8870108331782217 -0.4617486132350339 0
vn 0 0 1
vn -0.8870108331782217 0.4617486132350339 0
vn 0.4617486132350339 0.8870108331782217 0
vn -0.4617486132350339 -0.8870108331782217 0
usemtl m_6f3a3f64-b3b0-b508-40ca-0bdc3c78576f
f 16/44/11 19/43/11 17/42/11 14/41/11
usemtl none
f 15/48/12 16/47/12 14/46/12 13/45/12
usemtl m_6f3a3f64-b3b0-b508-40ca-0bdc3c78576f
f 20/52/13 15/51/13 13/50/13 18/49/13
f 19/56/14 20/55/14 18/54/14 17/53/14
f 18/60/15 13/59/15 14/58/15 17/57/15
f 19/64/16 16/63/16 15/62/16 20/61/16
o cube2
v 0.39262803867695273 0.8274562666586074 0.4375
v 0.39262803867695273 0.8274562666586074 0.1875
v 0.27719088536819436 0.605703558364052 0.4375
v 0.27719088536819436 0.605703558364052 0.1875
v 0.05999897623511963 1.000611996621745 0.1875
v 0.05999897623511963 1.000611996621745 0.4375
v -0.05543817707363885 0.7788592883271896 0.1875
v -0.05543817707363885 0.7788592883271896 0.4375
vt 0.25 0
vt 0.25 0.375
vt 0 0.375
vt 0 0
vt 0.25 1
vt 0 1
vt 0 0.75
vt 0.25 0.75
vt 0.25 0.375
vt 0.25 0
vt 0 0
vt 0 0.375
vt 0.25 0.625
vt 0 0.625
vt 0 0.375
vt 0.25 0.375
vt 0 0.375
vt 0 0
vt 0.25 0
vt 0.25 0.375
vt 0 0.375
vt 0 0
vt 0.25 0
vt 0.25 0.375
vn 0 0 -1
vn 0.8870108331782217 -0.4617486132350339 0
vn 0 0 1
vn -0.8870108331782217 0.4617486132350339 0
vn 0.4617486132350339 0.8870108331782217 0
vn -0.4617486132350339 -0.8870108331782217 0
usemtl m_6f3a3f64-b3b0-b508-40ca-0bdc3c78576f
f 24/68/17 27/67/17 25/66/17 22/65/17
usemtl none
f 23/72/18 24/71/18 22/70/18 21/69/18
usemtl m_6f3a3f64-b3b0-b508-40ca-0bdc3c78576f
f 28/76/19 23/75/19 21/74/19 26/73/19
f 27/80/20 28/79/20 26/78/20 25/77/20
f 26/84/21 21/83/21 22/82/21 25/81/21
f 27/88/22 24/87/22 23/86/22 28/85/22
o cube3
v 0.9400010237648804 1.000611996621745 0.8125
v 0.9400010237648804 1.000611996621745 0.5625
v 1.055438177073639 0.7788592883271896 0.8125
v 1.055438177073639 0.7788592883271896 0.5625
v 0.6073719613230473 0.8274562666586074 0.5625
v 0.6073719613230473 0.8274562666586074 0.8125
v 0.7228091146318056 0.605703558364052 0.5625
v 0.7228091146318056 0.605703558364052 0.8125
vt 0.25 0.375
vt 0.25 0
vt 0 0
vt 0 0.375
vt 0.25 0.625
vt 0 0.625
vt 0 0.375
vt 0.25 0.375
vt 0.25 0
vt 0.25 0.375
vt 0 0.375
vt 0 0
vt 0.25 1
vt 0 1
vt 0 0.75
vt 0.25 0.75
vt 0 0
vt 0 0.375
vt 0.25 0.375
vt 0.25 0
vt 0 0
vt 0 0.375
vt 0.25 0.375
vt 0.25 0
vn 0 0 -1
vn 0.8870108331782217 0.4617486132350339 0
vn 0 0 1
vn -0.8870108331782217 -0.4617486132350339 0
vn -0.4617486132350339 0.8870108331782217 0
vn 0.4617486132350339 -0.8870108331782217 0
usemtl m_6f3a3f64-b3b0-b508-40ca-0bdc3c78576f
f 32/92/23 35/91/23 33/90/23 30/89/23
f 31/96/24 32/95/24 30/94/24 29/93/24
f 36/100/25 31/99/25 29/98/25 34/97/25
usemtl none
f 35/104/26 36/103/26 34/102/26 33/101/26
usemtl m_6f3a3f64-b3b0-b508-40ca-0bdc3c78576f
f 34/108/27 29/107/27 30/106/27 33/105/27
f 35/112/28 32/111/28 31/110/28 36/109/28
o cube4
v 0.9400010237648804 1.000611996621745 0.4375
v 0.9400010237648804 1.000611996621745 0.1875
v 1.055438177073639 0.7788592883271896 0.4375
v 1.055438177073639 0.7788592883271896 0.1875
v 0.6073719613230473 0.8274562666586074 0.1875
v 0.6073719613230473 0.8274562666586074 0.4375
v 0.7228091146318056 0.605703558364052 0.1875
v 0.7228091146318056 0.605703558364052 0.4375
vt 0.25 0.375
vt 0.25 0
vt 0 0
vt 0 0.375
vt 0.25 0.625
vt 0 0.625
vt 0 0.375
vt 0.25 0.375
vt 0.25 0
vt 0.25 0.375
vt 0 0.375
vt 0 0
vt 0.25 1
vt 0 1
vt 0 0.75
vt 0.25 0.75
vt 0 0
vt 0 0.375
vt 0.25 0.375
vt 0.25 0
vt 0 0
vt 0 0.375
vt 0.25 0.375
vt 0.25 0
vn 0 0 -1
vn 0.8870108331782217 0.4617486132350339 0
vn 0 0 1
vn -0.8870108331782217 -0.4617486132350339 0
vn -0.4617486132350339 0.8870108331782217 0
vn 0.4617486132350339 -0.8870108331782217 0
usemtl m_6f3a3f64-b3b0-b508-40ca-0bdc3c78576f
f 40/116/29 43/115/29 41/114/29 38/113/29
f 39/120/30 40/119/30 38/118/30 37/117/30
f 44/124/31 39/123/31 37/122/31 42/121/31
usemtl none
f 43/128/32 44/127/32 42/126/32 41/125/32
usemtl m_6f3a3f64-b3b0-b508-40ca-0bdc3c78576f
f 42/132/33 37/131/33 38/130/33 41/129/33
f 43/136/34 40/135/34 39/134/34 44/133/34